<?xml version="1.0" encoding="UTF-8" standalone="no"?>
<!-- Created with Inkscape (http://www.inkscape.org/) -->

<svg
   width="101mm"
   height="74mm"
   viewBox="0 0 101 74"
   version="1.1"
   id="svg5"
   inkscape:version="1.2.2 (732a01da63, 2022-12-09)"
   sodipodi:docname="mirp.svg"
   xmlns:inkscape="http://www.inkscape.org/namespaces/inkscape"
   xmlns:sodipodi="http://sodipodi.sourceforge.net/DTD/sodipodi-0.dtd"
   xmlns="http://www.w3.org/2000/svg"
   xmlns:svg="http://www.w3.org/2000/svg"
   xmlns:rdf="http://www.w3.org/1999/02/22-rdf-syntax-ns#"
   xmlns:cc="http://creativecommons.org/ns#"
   xmlns:dc="http://purl.org/dc/elements/1.1/">
  <title
     id="title11">MIRP logo</title>
  <sodipodi:namedview
     id="namedview7"
     pagecolor="#505050"
     bordercolor="#eeeeee"
     borderopacity="1"
     inkscape:showpageshadow="0"
     inkscape:pageopacity="0"
     inkscape:pagecheckerboard="0"
     inkscape:deskcolor="#505050"
     inkscape:document-units="mm"
     showgrid="false"
     inkscape:zoom="1.829812"
     inkscape:cx="-152.20143"
     inkscape:cy="162.31176"
     inkscape:window-width="2560"
     inkscape:window-height="1377"
     inkscape:window-x="2552"
     inkscape:window-y="-8"
     inkscape:window-maximized="1"
     inkscape:current-layer="layer2" />
  <defs
     id="defs2" />
  <g
     inkscape:label="Layer 1"
     inkscape:groupmode="layer"
     id="layer1">
    <path
       style="fill:#ff6600;stroke:none;stroke-width:0.693457px;stroke-linecap:butt;stroke-linejoin:miter;stroke-opacity:1"
       d="M 15.156974,60.684113 C 11.450946,57.4338 11.654738,49.963958 8.3487824,47.936125 3.8451314,45.173642 -1.7443782,35.448783 1.434364,25.172235 3.4001908,18.816913 13.150502,20.006158 18.916213,13.811794 22.716158,9.7293401 36.044704,-1.0216377 44.009655,0.68129222 58.0023,3.6729594 70.5,25.711985 70.5,25.711985 v 44.768509 c 0,0 -43.129479,0.915313 -55.343026,-9.796381 z"
       id="path179"
       sodipodi:nodetypes="sssssccs" />
    <path
       style="fill:#ffb380;stroke:none;stroke-width:0.693457px;stroke-linecap:butt;stroke-linejoin:miter;stroke-opacity:1"
       d="M 30.685249,41.375005 C 26.32775,38.899838 21.359466,50.077676 18.529445,49.251925 14.877842,48.186447 15.116517,42.318501 15.860701,37.417713 17.241056,28.32745 27.673589,21.227169 37.324279,19.457679 46.974969,17.688188 70.5,25.980104 70.5,25.980104 v 40.249489 c 0,0 -30.55344,-3.10349 -33.709808,-8.550636 -2.137309,-3.688492 -2.266307,-14.123508 -6.104943,-16.303952 z"
       id="path181"
       sodipodi:nodetypes="ssszccss" />
    <path
       style="fill:#ffccaa;stroke:none;stroke-width:0.693457px;stroke-linecap:butt;stroke-linejoin:miter;stroke-opacity:1"
       d="m 70.5,35.520629 v 26.842465 c 0,0 -20.307406,-3.186503 -24.558293,-8.225915 C 41.690819,49.097767 44.89316,44.857587 43.080463,41.726153 41.267766,38.594717 36.803273,39.584843 36.362759,35.80926 35.922246,32.033678 36.900174,27.706838 43.204866,25.418637 49.509558,23.130434 70.5,35.520629 70.5,35.520629 Z"
       id="path556"
       sodipodi:nodetypes="cczzzzc" />
    <rect
       style="fill:#ff7a21;fill-opacity:1;stroke:#e6e6e6;stroke-width:0.5;stroke-linecap:round;stroke-linejoin:round;stroke-dasharray:none;stroke-opacity:1"
       id="rect610"
       width="8"
       height="8"
       x="60.499992"
       y="17.49999" />
    <rect
       style="fill:#ffb685;fill-opacity:1;stroke:#e6e6e6;stroke-width:0.5;stroke-linecap:round;stroke-linejoin:round;stroke-dasharray:none;stroke-opacity:1"
       id="rect610-7"
       width="8"
       height="8"
       x="60.499992"
       y="25.49999" />
    <rect
       style="fill:#ffc198;fill-opacity:1;stroke:#e6e6e6;stroke-width:0.5;stroke-linecap:round;stroke-linejoin:round;stroke-dasharray:none;stroke-opacity:1"
       id="rect610-7-8"
       width="8"
       height="8"
       x="60.499992"
       y="41.499981" />
    <rect
       style="fill:#ff8939;fill-opacity:1;stroke:#e6e6e6;stroke-width:0.5;stroke-linecap:round;stroke-linejoin:round;stroke-dasharray:none;stroke-opacity:1"
       id="rect610-7-8-0"
       width="8"
       height="8"
       x="60.499992"
       y="57.499981" />
    <rect
       style="fill:#ffc198;fill-opacity:1;stroke:#e6e6e6;stroke-width:0.5;stroke-linecap:round;stroke-linejoin:round;stroke-dasharray:none;stroke-opacity:1"
       id="rect610-7-3"
       width="8"
       height="8"
       x="68.499992"
       y="25.49999" />
    <rect
       style="fill:#ff8f46;fill-opacity:1;stroke:#e6e6e6;stroke-width:0.5;stroke-linecap:round;stroke-linejoin:round;stroke-dasharray:none;stroke-opacity:1"
       id="rect610-7-8-7"
       width="8"
       height="8"
       x="68.499992"
       y="41.499985" />
    <rect
       style="fill:#ff9853;fill-opacity:1;stroke:#e6e6e6;stroke-width:0.5;stroke-linecap:round;stroke-linejoin:round;stroke-dasharray:none;stroke-opacity:1"
       id="rect610-7-8-0-0"
       width="8"
       height="8"
       x="68.499992"
       y="57.499981" />
    <rect
       style="fill:#ff7b24;fill-opacity:1;stroke:#e6e6e6;stroke-width:0.5;stroke-linecap:round;stroke-linejoin:round;stroke-dasharray:none;stroke-opacity:1"
       id="rect610-7-8-0-0-91"
       width="8"
       height="8"
       x="68.499992"
       y="65.499985" />
    <rect
       style="fill:#ffa568;fill-opacity:1;stroke:#e6e6e6;stroke-width:0.5;stroke-linecap:round;stroke-linejoin:round;stroke-dasharray:none;stroke-opacity:1"
       id="rect610-7-3-2"
       width="8"
       height="8"
       x="68.499992"
       y="33.499981" />
    <rect
       style="fill:#ffb27e;fill-opacity:1;stroke:#e6e6e6;stroke-width:0.5;stroke-linecap:round;stroke-linejoin:round;stroke-dasharray:none;stroke-opacity:1"
       id="rect610-7-8-7-9"
       width="8"
       height="8"
       x="68.499992"
       y="49.499989" />
    <rect
       style="fill:#bdbdbd;fill-opacity:1;stroke:#e6e6e6;stroke-width:0.5;stroke-linecap:round;stroke-linejoin:round;stroke-dasharray:none;stroke-opacity:1"
       id="rect610-7-3-3"
       width="8"
       height="8"
       x="76.499992"
       y="25.49999" />
    <rect
       style="fill:#acacac;fill-opacity:1;stroke:#e6e6e6;stroke-width:0.5;stroke-linecap:round;stroke-linejoin:round;stroke-dasharray:none;stroke-opacity:1"
       id="rect610-7-8-7-94"
       width="8"
       height="8"
       x="76.499992"
       y="41.499985" />
    <rect
       style="fill:#ffc198;fill-opacity:1;stroke:#e6e6e6;stroke-width:0.5;stroke-linecap:round;stroke-linejoin:round;stroke-dasharray:none;stroke-opacity:1"
       id="rect610-7-8-0-0-9"
       width="8"
       height="8"
       x="76.499992"
       y="57.499981" />
    <rect
       style="fill:#ffb380;fill-opacity:1;stroke:#e6e6e6;stroke-width:0.5;stroke-linecap:round;stroke-linejoin:round;stroke-dasharray:none;stroke-opacity:1"
       id="rect610-7-8-0-0-9-3"
       width="8"
       height="8"
       x="60.499992"
       y="49.499981" />
    <rect
       style="fill:#939393;fill-opacity:1;stroke:#e6e6e6;stroke-width:0.5;stroke-linecap:round;stroke-linejoin:round;stroke-dasharray:none;stroke-opacity:1"
       id="rect610-7-3-2-3"
       width="8"
       height="8"
       x="76.499992"
       y="33.499981" />
    <rect
       style="fill:#ffa466;fill-opacity:1;stroke:#e6e6e6;stroke-width:0.5;stroke-linecap:round;stroke-linejoin:round;stroke-dasharray:none;stroke-opacity:1"
       id="rect610-7-8-7-9-4"
       width="8"
       height="8"
       x="76.499992"
       y="49.499981" />
    <rect
       style="fill:#ffb07b;fill-opacity:1;stroke:#e6e6e6;stroke-width:0.5;stroke-linecap:round;stroke-linejoin:round;stroke-dasharray:none;stroke-opacity:1"
       id="rect610-7-8-0-0-2-5"
       width="8"
       height="8"
       x="76.499992"
       y="65.499985" />
    <rect
       style="fill:#e6e6e6;stroke:#e6e6e6;stroke-width:0.5;stroke-linecap:round;stroke-linejoin:round;stroke-dasharray:none;stroke-opacity:1"
       id="rect610-7-3-3-5"
       width="8"
       height="8"
       x="84.499992"
       y="25.49999" />
    <rect
       style="fill:#8b8b8b;fill-opacity:1;stroke:#e6e6e6;stroke-width:0.5;stroke-linecap:round;stroke-linejoin:round;stroke-dasharray:none;stroke-opacity:1"
       id="rect610-7-8-7-94-6"
       width="8"
       height="8"
       x="84.499992"
       y="41.499985" />
    <rect
       style="fill:#acacac;fill-opacity:1;stroke:#e6e6e6;stroke-width:0.5;stroke-linecap:round;stroke-linejoin:round;stroke-dasharray:none;stroke-opacity:1"
       id="rect610-7-8-0-0-9-34"
       width="8"
       height="8"
       x="84.499992"
       y="57.499981" />
    <rect
       style="fill:#aeaeae;fill-opacity:1;stroke:#e6e6e6;stroke-width:0.5;stroke-linecap:round;stroke-linejoin:round;stroke-dasharray:none;stroke-opacity:1"
       id="rect610-7-3-2-3-2"
       width="8"
       height="8"
       x="84.499992"
       y="33.499985" />
    <rect
       style="fill:#9d9d9d;fill-opacity:1;stroke:#e6e6e6;stroke-width:0.5;stroke-linecap:round;stroke-linejoin:round;stroke-dasharray:none;stroke-opacity:1"
       id="rect610-7-8-7-9-4-4"
       width="8"
       height="8"
       x="84.499992"
       y="49.499981" />
    <rect
       style="fill:#747474;fill-opacity:1;stroke:#e6e6e6;stroke-width:0.5;stroke-linecap:round;stroke-linejoin:round;stroke-dasharray:none;stroke-opacity:1"
       id="rect610-7-8-7-94-6-9"
       width="8"
       height="8"
       x="92.499992"
       y="41.499977" />
    <rect
       style="fill:#a3a3a3;fill-opacity:1;stroke:#e6e6e6;stroke-width:0.5;stroke-linecap:round;stroke-linejoin:round;stroke-dasharray:none;stroke-opacity:1"
       id="rect610-7-8-0-0-9-34-2"
       width="8"
       height="8"
       x="92.499992"
       y="57.499973" />
    <rect
       style="fill:#a0a0a0;fill-opacity:1;stroke:#e6e6e6;stroke-width:0.5;stroke-linecap:round;stroke-linejoin:round;stroke-dasharray:none;stroke-opacity:1"
       id="rect610-7-3-2-3-2-2"
       width="8"
       height="8"
       x="92.499992"
       y="33.499981" />
    <rect
       style="fill:#7e7e7e;fill-opacity:1;stroke:#e6e6e6;stroke-width:0.5;stroke-linecap:round;stroke-linejoin:round;stroke-dasharray:none;stroke-opacity:1"
       id="rect610-7-8-7-9-4-4-1"
       width="8"
       height="8"
       x="92.499992"
       y="49.499977" />
    <rect
       style="fill:#7c7c7c;fill-opacity:1;stroke:#e6e6e6;stroke-width:0.5;stroke-linecap:round;stroke-linejoin:round;stroke-dasharray:none;stroke-opacity:1"
       id="rect610-7-8-0-0-2-5-5"
       width="8"
       height="8"
       x="84.499992"
       y="65.499985" />
    <rect
       style="fill:#c5c5c5;fill-opacity:1;stroke:#e6e6e6;stroke-width:0.5;stroke-linecap:round;stroke-linejoin:round;stroke-dasharray:none;stroke-opacity:1"
       id="rect610-7-8-0-0-2-5-51"
       width="8"
       height="8"
       x="68.499992"
       y="17.49999" />
    <rect
       style="fill:#e6e6e6;stroke:#e6e6e6;stroke-width:0.5;stroke-linecap:round;stroke-linejoin:round;stroke-dasharray:none;stroke-opacity:1"
       id="rect610-7-8-0-0-2-5-5-7"
       width="8"
       height="8"
       x="76.499992"
       y="17.49999" />
    <rect
       style="fill:#ff9f5e;fill-opacity:1;stroke:#e6e6e6;stroke-width:0.5;stroke-linecap:round;stroke-linejoin:round;stroke-dasharray:none;stroke-opacity:1"
       id="rect610-3"
       width="8"
       height="8"
       x="52.499992"
       y="17.49999" />
  </g>
  <g
     inkscape:groupmode="layer"
     id="layer2"
     inkscape:label="Text">
    <g
       aria-label="MIRP"
       id="text1806"
       style="font-size:42.3333px;line-height:1.25;font-family:'Linux Biolinum G';-inkscape-font-specification:'Linux Biolinum G';stroke-width:0.264583">
      <path
         d="m 8.5387694,22.923349 h 1.1575512 q 1.3022454,2.687173 4.4648404,10.066562 3.162595,7.358718 5.374345,11.451489 L 30.470231,22.923349 h 0.930175 q 1.839679,16.019682 3.555336,28.1533 -0.640788,-0.124024 -2.23242,-0.124024 -1.44694,0 -2.087727,0.124024 -1.095539,-13.249828 -1.922362,-20.133123 l -0.144694,-0.02067 q -5.498368,10.128573 -9.818514,20.02977 H 17.943873 Q 16.70364,48.306794 13.809761,41.423498 10.936554,34.519532 9.0555333,30.798832 h -0.186035 q -0.5581051,3.389971 -1.6743152,10.810701 -1.1162101,7.42073 -1.446939,9.467116 -0.4754228,-0.124024 -1.260904,-0.124024 -0.9301751,0 -1.4055979,0.124024 3.3486303,-16.040353 5.4570272,-28.1533 z"
         id="path367" />
      <path
         d="m 42.273119,32.121747 q 0,-5.457027 -0.413411,-8.474928 l 0.08268,-0.124023 q 0.764811,0.124023 2.149738,0.124023 1.384928,0 2.170409,-0.124023 l 0.08268,0.124023 q -0.434082,2.95589 -0.434082,8.474928 v 10.35595 q 0,5.291662 0.434082,8.474928 l -0.08268,0.124024 q -0.785481,-0.124024 -2.170409,-0.124024 -1.384927,0 -2.149738,0.124024 l -0.08268,-0.124024 q 0.413411,-2.873207 0.413411,-8.474928 z"
         id="path369" />
      <path
         d="m 58.60286,38.839679 v 3.638018 q 0,5.291662 0.434082,8.474928 l -0.08268,0.124024 q -0.785482,-0.124024 -2.170409,-0.124024 -1.384927,0 -2.149738,0.124024 l -0.08268,-0.124024 q 0.413411,-2.873207 0.413411,-8.474928 v -10.35595 q 0,-5.457027 -0.413411,-8.474928 l 0.08268,-0.124023 q 0.764811,0.124023 2.149738,0.124023 0.661458,0 2.935219,-0.144694 2.294432,-0.144694 2.790526,-0.144694 1.694985,0 2.852536,0.103353 1.157552,0.08268 2.625161,0.558105 1.48828,0.475423 2.439126,1.364257 2.23242,2.108397 2.23242,5.291662 0,2.439126 -1.178222,4.175453 -1.178221,1.715656 -3.059242,2.645831 -0.930175,0.475423 -2.563149,0.806152 0.992187,1.322916 4.423499,6.325191 3.451983,4.981604 4.630205,6.32519 l -0.08268,0.124024 q -0.847493,-0.124024 -2.542479,-0.124024 -1.736327,0 -2.542478,0.124024 -0.330729,-1.033528 -1.570963,-3.286619 -1.219563,-2.273761 -2.459796,-4.278805 L 64.948721,42.270991 64.14257,40.948075 Q 63.873852,40.493323 63.398429,39.852536 62.943677,39.211749 62.530266,38.715655 60.81461,38.839679 58.60286,38.839679 Z M 62.550937,25.17644 q -1.508951,0 -2.232421,0.04134 -0.723469,0.04134 -1.157551,0.289388 -0.434081,0.227376 -0.496093,0.537435 -0.06201,0.289387 -0.06201,0.992186 v 10.107903 h 2.459797 q 1.302245,0 2.356443,-0.165365 1.074869,-0.165364 2.046385,-0.599446 0.992187,-0.454752 1.653645,-1.157551 0.682128,-0.723469 1.074869,-1.86035 0.39274,-1.136881 0.39274,-2.645831 0,-1.322916 -0.39274,-2.315103 -0.37207,-1.012857 -0.971516,-1.612303 -0.599447,-0.599446 -1.446939,-0.971517 -0.826823,-0.37207 -1.612304,-0.496093 -0.764811,-0.144694 -1.612303,-0.144694 z"
         id="path371" />
      <path
         d="m 83.986302,27.03679 v 9.98388 q 0.847493,0.434081 3.34863,0.434081 3.245278,0 4.857581,-1.467609 1.612304,-1.46761 1.612304,-4.981605 0,-1.467609 -0.37207,-2.542478 -0.3514,-1.074869 -0.909505,-1.694986 -0.537434,-0.620117 -1.364256,-0.992187 -0.826823,-0.37207 -1.612304,-0.475422 -0.785481,-0.124024 -1.756997,-0.124024 -2.170409,0 -2.997231,0.454752 -0.806152,0.434082 -0.806152,1.405598 z m -3.638018,5.084957 q 0,-5.457027 -0.413411,-8.474928 l 0.08268,-0.124023 q 0.764811,0.124023 2.149738,0.124023 0.640787,0 3.017901,-0.144694 2.377115,-0.144694 2.914549,-0.144694 2.253091,0 4.010088,0.475423 1.777668,0.475423 2.831867,1.240233 1.074869,0.74414 1.756997,1.756998 0.702799,1.012857 0.950846,1.984373 0.268717,0.971517 0.268717,1.984374 0,1.13688 -0.330729,2.273761 -0.330729,1.11621 -1.11621,2.253091 -0.785481,1.136881 -1.943033,2.005044 -1.157551,0.868163 -2.97656,1.405598 -1.798338,0.537434 -4.010088,0.537434 -2.170409,0 -3.555336,-0.434081 v 3.638018 q 0,5.291662 0.434082,8.474928 l -0.08268,0.124024 q -0.785482,-0.124024 -2.170409,-0.124024 -1.384927,0 -2.149738,0.124024 l -0.08268,-0.124024 q 0.413411,-2.873207 0.413411,-8.474928 z"
         id="path373" />
    </g>
  </g>
  <metadata
     id="metadata9">
    <rdf:RDF>
      <cc:Work
         rdf:about="">
        <cc:license
           rdf:resource="http://creativecommons.org/licenses/by-sa/4.0/" />
        <dc:title>MIRP logo</dc:title>
        <dc:date>2023-03-08</dc:date>
        <dc:creator>
          <cc:Agent>
            <dc:title>Alex Zwanenburg</dc:title>
          </cc:Agent>
        </dc:creator>
      </cc:Work>
      <cc:License
         rdf:about="http://creativecommons.org/licenses/by-sa/4.0/">
        <cc:permits
           rdf:resource="http://creativecommons.org/ns#Reproduction" />
        <cc:permits
           rdf:resource="http://creativecommons.org/ns#Distribution" />
        <cc:requires
           rdf:resource="http://creativecommons.org/ns#Notice" />
        <cc:requires
           rdf:resource="http://creativecommons.org/ns#Attribution" />
        <cc:permits
           rdf:resource="http://creativecommons.org/ns#DerivativeWorks" />
        <cc:requires
           rdf:resource="http://creativecommons.org/ns#ShareAlike" />
      </cc:License>
    </rdf:RDF>
  </metadata>
</svg>
